<svg width="517" height="513" viewBox="0 0 517 513" fill="none" xmlns="http://www.w3.org/2000/svg">
<path fill-rule="evenodd" clip-rule="evenodd" d="M217.159 1.52829C218.119 2.13076 218.941 2.86977 219.616 3.70427C219.802 3.87862 219.977 4.07028 220.137 4.27904L513.077 384.859C513.293 385.141 513.474 385.439 513.618 385.748C514.557 386.837 515.279 388.142 515.698 389.615C517.241 395.036 514.097 400.681 508.677 402.223L137.891 507.74C137.509 507.849 137.126 507.935 136.743 507.998L120.593 512.594C120.251 512.691 119.906 512.748 119.565 512.768C117.493 513.192 115.281 512.343 114.061 510.461L1.95451 337.509C-0.413895 334.305 -0.718211 329.849 1.52829 326.27L203.404 4.67413C206.334 0.00707419 212.492 -1.40136 217.159 1.52829ZM191.247 62.1637L27.6711 322.746L140.531 336.949L191.247 62.1637ZM116.285 468.315L136.508 358.744L37.1574 346.241L116.285 468.315ZM447.94 397.936L135.639 486.81L158.759 361.544L447.94 397.936ZM478.349 379.462L162.782 339.749L217.903 41.0967L478.349 379.462Z" fill="#101010"/>
</svg>
